<?xml version="1.0" encoding="UTF-8" standalone="no"?>
<!-- Created with Inkscape (http://www.inkscape.org/) -->

<svg
   width="892.76886mm"
   height="196.57655mm"
   viewBox="0 0 892.76886 196.57655"
   version="1.1"
   id="svg1"
   inkscape:export-filename="newwave.png"
   inkscape:export-xdpi="96"
   inkscape:export-ydpi="96"
   xmlns:inkscape="http://www.inkscape.org/namespaces/inkscape"
   xmlns:sodipodi="http://sodipodi.sourceforge.net/DTD/sodipodi-0.dtd"
   xmlns="http://www.w3.org/2000/svg"
   xmlns:svg="http://www.w3.org/2000/svg">
  <sodipodi:namedview
     id="namedview1"
     pagecolor="#ffffff"
     bordercolor="#000000"
     borderopacity="0.25"
     inkscape:showpageshadow="2"
     inkscape:pageopacity="0.0"
     inkscape:pagecheckerboard="0"
     inkscape:deskcolor="#d1d1d1"
     inkscape:document-units="mm" />
  <defs
     id="defs1">
    <inkscape:path-effect
       effect="powerclip"
       id="path-effect14"
       is_visible="true"
       lpeversion="1"
       inverse="true"
       flatten="false"
       hide_clip="false"
       message="Use fill-rule evenodd on &lt;b&gt;fill and stroke&lt;/b&gt; dialog if no flatten result after convert clip to paths." />
    <inkscape:path-effect
       effect="spiro"
       id="path-effect12"
       is_visible="true"
       lpeversion="1" />
    <clipPath
       clipPathUnits="userSpaceOnUse"
       id="clipPath13">
      <path
         style="display:none;fill:#94ee84;stroke-width:1.965;stroke-linecap:round;stroke-linejoin:round"
         d="m 0,108.11362 v 101.62681 l 420.02144,5.94625 3.24339,-109.19476 108.65419,-3.24341 -16.21703,184.8743 -550.838919,-19.46045 -11.351929,-160.54874 z"
         id="path14"
         sodipodi:nodetypes="ccccccccc" />
      <path
         id="lpe_path-effect14"
         style="fill:#94ee84;stroke-width:1.965;stroke-linecap:round;stroke-linejoin:round"
         class="powerclip"
         d="M -35.948494,117.70334 H 503.87908 v 156.8874 H -35.948494 Z M 0,108.11362 h -46.488858 l 11.351929,160.54874 550.838919,19.46045 16.21703,-184.8743 -108.65419,3.24341 -3.24339,109.19476 L 0,209.74043 Z"
         sodipodi:nodetypes="cccccccccccccc" />
    </clipPath>
    <inkscape:path-effect
       effect="spiro"
       id="path-effect12-6"
       is_visible="true"
       lpeversion="1" />
    <inkscape:path-effect
       effect="powerclip"
       id="path-effect14-8"
       is_visible="true"
       lpeversion="1"
       inverse="true"
       flatten="false"
       hide_clip="false"
       message="Use fill-rule evenodd on &lt;b&gt;fill and stroke&lt;/b&gt; dialog if no flatten result after convert clip to paths." />
    <clipPath
       clipPathUnits="userSpaceOnUse"
       id="clipath_lpe_path-effect14-8">
      <path
         style="display:none;fill:#94ee84;stroke-width:1.965;stroke-linecap:round;stroke-linejoin:round"
         d="m 0,108.11362 v 101.62681 l 420.02144,5.94625 3.24339,-109.19476 108.65419,-3.24341 -16.21703,184.8743 -550.838919,-19.46045 -11.351929,-160.54874 z"
         id="path15" />
      <path
         id="lpe_path-effect14-8"
         style="fill:#94ee84;stroke-width:1.965;stroke-linecap:round;stroke-linejoin:round"
         class="powerclip"
         d="M -35.738396,118.25757 H 503.9169 V 245.42853 H -35.738396 Z M 0,108.11362 h -46.488858 l 11.351929,160.54874 550.838919,19.46045 16.21703,-184.8743 -108.65419,3.24341 -3.24339,109.19476 L 0,209.74043 Z" />
    </clipPath>
  </defs>
  <g
     inkscape:label="Layer 1"
     inkscape:groupmode="layer"
     id="layer1"
     transform="translate(196.30256,-90.102968)">
    <g
       id="g18">
      <g
         id="g17"
         transform="translate(-128.43243,-32.108108)">
        <path
           style="fill:#72a8ec;fill-opacity:1;stroke-width:1.965;stroke-linecap:round;stroke-linejoin:round"
           d="m -20.541589,221.09236 c 7.381388,-6.23143 12.871553,-14.43984 17.1939987,-23.07883 4.32244581,-8.63898 7.5576154,-17.77047 11.0980742,-26.75828 3.5404591,-8.98781 7.4311261,-17.91791 12.9147751,-25.87059 5.483649,-7.95268 12.685043,-14.93839 21.499053,-18.89172 10.419085,-4.67325 22.545696,-4.79441 33.515223,-1.6217 11.09281,3.20837 20.973056,9.53551 31.352955,14.59533 7.13525,3.47817 14.7663,6.4187 22.70386,6.48682 8.33741,0.0715 16.37358,-3.02935 23.86046,-6.6987 7.48688,-3.66934 14.71518,-7.97296 22.62839,-10.59948 9.57242,-3.17724 20.16923,-3.74897 29.73125,-0.54057 6.82244,2.28917 12.87104,6.37241 18.91988,10.2708 9.95127,6.41345 20.62991,12.60787 32.43409,13.5142 12.5215,0.9614 24.70181,-4.16778 35.67749,-10.27079 7.73715,-4.30223 15.2004,-9.15448 23.33048,-12.65798 8.13008,-3.50351 17.14014,-5.62131 25.86122,-4.09963 7.53493,1.31471 14.35575,5.2426 20.61896,9.63303 6.26321,4.39043 12.17402,9.3245 18.84251,13.07082 7.95504,4.46909 16.87294,7.15344 25.94726,8.10852 5.20241,0.54756 10.44534,0.54057 15.67649,0.54057 h 37.83978 c 4.39488,0 8.80957,0.0244 13.15125,0.70611 4.34169,0.68172 8.61148,2.034 12.37296,4.30694 3.76148,2.27294 6.98266,5.46938 9.14424,9.29594 2.16158,3.82656 3.24063,8.2546 3.09259,12.64698 -0.14803,4.39239 -1.51074,8.71872 -3.77964,12.48264 -2.26891,3.76391 -5.41878,6.96165 -9.00548,9.50145 -7.1734,5.07959 -15.87625,7.44087 -24.43535,9.4413 -44.01041,10.28611 -89.47838,14.46658 -134.60148,11.8925 -43.86558,-2.50234 -87.1977,-11.33393 -131.07726,-13.5778 -43.87956,-2.24388 -89.74136,2.69475 -127.314291,25.4703 -10.07734,6.10857 -19.397272,13.40413 -29.49226,19.48349 -10.094988,6.07937 -21.23896,10.99265 -33.0051132,11.64464 -5.88307653,0.326 -11.8599219,-0.44077 -17.3545388,-2.56822 -5.494618,-2.12745 -10.49182,-5.64492 -14.084157,-10.31525 -3.592336,-4.67033 -5.72796,-10.50863 -5.663139,-16.40038 0.06482,-5.89174 2.40044,-11.78814 6.621494,-15.89905 1.19046,-1.1594 2.514206,-2.17146 3.783976,-3.24341 z"
           id="path12"
           inkscape:path-effect="#path-effect12;#path-effect14"
           inkscape:original-d="m -20.541589,221.09236 c 8.468901,-24.50575 48.651131,-86.85128 62.705901,-94.59942 14.054772,-7.74815 22.703861,-0.54057 33.515223,-1.6217 10.811364,-1.08114 21.262347,9.55003 31.352955,14.59533 10.0906,5.0453 14.77552,3.96417 22.70386,6.48682 7.92833,2.52265 31.17276,-11.17174 46.48885,-17.29818 15.3161,-6.12644 19.82083,-0.36038 29.73125,-0.54057 9.91042,-0.18019 12.61326,6.8472 18.91988,10.2708 6.30663,3.42359 21.62273,9.00946 32.43409,13.5142 10.81137,4.50473 23.60482,-6.8472 35.67749,-10.27079 12.0727,-3.4236 32.97465,-10.99156 49.1917,-16.75761 16.21706,-5.76607 25.76709,14.95571 39.46147,22.70385 13.69441,7.74815 17.83876,5.40568 25.94726,8.10852 8.10853,2.70285 10.45099,0.54057 15.67649,0.54057 h 37.83978 c 12.61324,0 0.18018,38.74072 0.54057,58.38136 0.36036,19.64064 -89.91452,7.92833 -134.60148,11.8925 -44.68696,3.96417 -170.9997,11.8925 -258.391551,11.8925 -87.391843,0 -63.0662784,-13.33402 -92.977714,-14.05477 -29.911435,-0.72076 -4.684924,21.26235 3.783976,-3.24341 z"
           clip-path="url(#clipPath13)"
           transform="translate(-36.921621,-0.49226392)"
           sodipodi:nodetypes="ssssssssssssssssssss" />
        <g
           id="g16">
          <path
             style="fill:#72a8ec;fill-opacity:1;stroke-width:1.965;stroke-linecap:round;stroke-linejoin:round"
             d="M 1.0811362,150.8185 C 13.385686,140.56174 26.878411,131.28297 42.164312,126.49294 c 10.810858,-3.38772 22.536895,-4.41948 33.515223,-1.6217 11.198892,2.85399 21.001694,9.45608 31.352955,14.59533 7.11229,3.53115 14.76337,6.43937 22.70386,6.48682 8.33651,0.0498 16.3673,-3.05237 23.8551,-6.71745 7.4878,-3.66509 14.72018,-7.95863 22.63375,-10.58073 9.57374,-3.17219 20.16916,-3.74769 29.73125,-0.54057 6.82274,2.28835 12.87117,6.37215 18.91988,10.2708 9.95103,6.41386 20.62988,12.60801 32.43409,13.5142 12.5215,0.96126 24.7018,-4.16782 35.67749,-10.27079 7.73717,-4.3022 15.20041,-9.15444 23.33049,-12.65795 8.13007,-3.50352 17.14013,-5.62133 25.86121,-4.09966 7.53493,1.31471 14.35575,5.2426 20.61896,9.63302 6.26321,4.39043 12.17402,9.32451 18.84251,13.07083 7.95504,4.4691 16.87294,7.15344 25.94726,8.10852 5.20241,0.54756 10.44534,0.54057 15.67649,0.54057 h 37.83978 c 4.39822,0 8.81625,0.0244 13.1613,0.70622 4.34505,0.68183 8.61826,2.03436 12.38322,4.30801 3.76496,2.27365 6.9897,5.4713 9.15448,9.29989 2.16478,3.82859 3.24662,8.25953 3.10017,12.65532 -0.14646,4.39578 -1.50885,8.72598 -3.77902,12.49303 -2.27018,3.76706 -5.4229,6.96715 -9.0135,9.50722 -7.1812,5.08015 -15.89499,7.43331 -24.46608,9.41167 -44.02216,10.16108 -89.46492,13.86451 -134.60148,11.8925 -43.90084,-1.91802 -87.40016,-9.15677 -131.22609,-12.35847 -43.82593,-3.20169 -88.76758,-2.21654 -130.40887,11.8179 -15.311341,5.16041 -30.247306,12.09312 -46.293245,13.98913 -8.022969,0.948 -16.2845413,0.58587 -23.9773026,-1.88155 -7.6927614,-2.46742 -14.7944294,-7.13655 -19.4637574,-13.72928 -4.132682,-5.83503 -6.232407,-12.99717 -6.401358,-20.14546 -0.168951,-7.14829 1.537861,-14.27675 4.470433,-20.798 5.865144,-13.0425 16.3529201,-23.41724 27.3376262,-32.57381 z"
             id="path12-9"
             inkscape:path-effect="#path-effect12-6;#path-effect14-8"
             inkscape:original-d="m 1.0811362,150.8185 c 8.4689004,-24.50575 27.0284058,-16.57742 41.0831758,-24.32556 14.054772,-7.74815 22.703861,-0.54057 33.515223,-1.6217 10.811364,-1.08114 21.262347,9.55003 31.352955,14.59533 10.0906,5.0453 14.77552,3.96417 22.70386,6.48682 7.92833,2.52265 31.17276,-11.17174 46.48885,-17.29818 15.3161,-6.12644 19.82083,-0.36038 29.73125,-0.54057 9.91042,-0.18019 12.61326,6.8472 18.91988,10.2708 6.30663,3.42359 21.62273,9.00946 32.43409,13.5142 10.81137,4.50473 23.60482,-6.8472 35.67749,-10.27079 12.0727,-3.4236 32.97465,-10.99156 49.1917,-16.75761 16.21706,-5.76607 25.76709,14.95571 39.46147,22.70385 13.69441,7.74815 17.83876,5.40568 25.94726,8.10852 8.10853,2.70285 10.45099,0.54057 15.67649,0.54057 5.22549,0 25.22651,0 37.83978,0 12.61324,0 0.18018,38.74072 0.54057,58.38136 0.36036,19.64064 -89.91452,7.92833 -134.60148,11.8925 -44.68696,3.96417 -174.24311,-0.54057 -261.63496,-0.54057 -87.391843,0 -59.8228694,-0.90095 -89.734305,-1.6217 C -54.237,223.61501 -7.3877643,175.32426 1.0811362,150.8185 Z"
             clip-path="url(#clipath_lpe_path-effect14-8)"
             transform="translate(325.9818,3.0878539)" />
        </g>
      </g>
      <rect
         style="fill:#72a8ec;fill-opacity:1;stroke-width:1.965;stroke-linecap:round;stroke-linejoin:round"
         id="rect17"
         width="784.35522"
         height="123.08108"
         x="-164.36293"
         y="163.59846" />
    </g>
  </g>
</svg>
